<svg xmlns="http://www.w3.org/2000/svg" style="display name;">
    <symbol id="main-logo">
        <svg width="94" height="18" viewBox="0 0 94 18" fill="none" xmlns="http://www.w3.org/2000/svg">
            <path d="M10.9672 16.7217V13.8232H3.29944V10.3217H10.8045V7.42319H3.29944V4.15362H10.9672V1.25507H0V16.7217H10.9672Z" fill="#000B26" fill-opacity="0.72"/>
            <path d="M21.0515 17C24.4672 17 26.4189 15.1217 27.5342 13.1971L24.6995 11.829C24.0489 13.1043 22.6548 14.0783 21.0515 14.0783C18.24 14.0783 16.1953 11.9217 16.1953 9C16.1953 6.07826 18.24 3.92174 21.0515 3.92174C22.6548 3.92174 24.0489 4.91884 24.6995 6.17101L27.5342 4.77971C26.4422 2.85507 24.4672 1 21.0515 1C16.4044 1 12.8029 4.24638 12.8029 9C12.8029 13.7536 16.4044 17 21.0515 17Z" fill="#000B26" fill-opacity="0.72"/>
            <g clip-path="url(#clip0_4_2949)">
                <path d="M32.5421 13.1004C32.5421 13.1004 33.8039 16.8843 38.5342 18.0001V16.5937C43.3575 16.5937 47.2675 13.5561 47.2675 8.73321C47.2675 3.91037 43.3575 0 38.5342 0C33.7116 0 29.801 3.91037 29.801 8.73321C29.801 9.16482 29.8334 9.58853 29.8934 10.0032C30.4693 6.30502 33.6744 3.41975 38.3158 2.50143C38.3532 2.0152 38.3907 1.52759 38.4337 0.97294C42.2236 1.65606 44.3561 5.66996 44.3561 5.66996C44.3561 5.66996 42.5124 9.00009 38.5907 10.2123L38.5976 8.27855C34.0518 9.73452 32.5421 13.1004 32.5421 13.1004Z" fill="url(#paint0_linear_4_2949)"/>
            </g>
            <path d="M62.0813 16.7103L58.596 10.8204C60.269 10.4262 61.9884 8.96534 61.9884 6.22911C61.9884 3.35375 60.0134 1.2436 56.7837 1.2436H49.5342V16.7103H52.8336V11.2146H55.2501L58.294 16.7103H62.0813ZM56.2957 8.31607H52.8336V4.14215H56.2957C57.6201 4.14215 58.6193 4.93056 58.6193 6.22911C58.6193 7.52766 57.6201 8.31607 56.2957 8.31607Z" fill="#000B26" fill-opacity="0.72"/>
            <path d="M71.4587 16.9885C76.1755 16.9885 78.4526 14.3682 78.4526 10.519V1.2436H75.0834V10.4262C75.0834 12.5827 73.8519 14.0668 71.4587 14.0668C69.0654 14.0668 67.8107 12.5827 67.8107 10.4262V1.2436H64.4648V10.5422C64.4648 14.3451 66.7419 16.9885 71.4587 16.9885Z" fill="#000B26" fill-opacity="0.72"/>
            <path d="M87.0125 16.9885C91.1949 16.9885 93.2164 14.8552 93.2164 12.0262C93.2164 6.2523 84.3172 7.89868 84.3172 5.4407C84.3172 4.51317 85.1072 3.88708 86.5245 3.88708C88.1046 3.88708 89.7775 4.42041 91.0322 5.57983L92.8678 3.16824C91.3343 1.75375 89.2896 1.01172 86.8266 1.01172C83.1786 1.01172 80.948 3.14505 80.948 5.71897C80.948 11.5393 89.8705 9.66099 89.8705 12.3972C89.8705 13.2784 88.9875 14.1132 87.1751 14.1132C85.0375 14.1132 83.3413 13.1624 82.2492 12.0262L80.4601 14.5306C81.9007 15.9914 84.0383 16.9885 87.0125 16.9885Z" fill="#000B26" fill-opacity="0.72"/>
            <defs>
                <linearGradient id="paint0_linear_4_2949" x1="29.5342" y1="-2.8125" x2="43.0343" y2="20.5" gradientUnits="userSpaceOnUse">
                    <stop stop-color="#00D5C7"/>
                    <stop offset="1" stop-color="#FFEE57"/>
                </linearGradient>
                <clipPath id="clip0_4_2949">
                    <rect width="18" height="18" fill="white" transform="translate(29.5342)"/>
                </clipPath>
            </defs>
        </svg>
    </symbol>

    <symbol id="city-logo">
        <svg width="24" height="24" viewBox="0 0 24 24" fill="none" xmlns="http://www.w3.org/2000/svg">
            <path fill-rule="evenodd" clip-rule="evenodd" d="M12 12C13.1046 12 14 11.1046 14 10C14 8.89543 13.1046 8 12 8C10.8954 8 10 8.89543 10 10C10 11.1046 10.8954 12 12 12ZM12 13.5C13.933 13.5 15.5 11.933 15.5 10C15.5 8.067 13.933 6.5 12 6.5C10.067 6.5 8.5 8.067 8.5 10C8.5 11.933 10.067 13.5 12 13.5Z" fill="#000B26" fill-opacity="0.72"/>
            <path fill-rule="evenodd" clip-rule="evenodd" d="M16.1185 16.1287C17.4819 14.3107 18.5 12.159 18.5 9.80488C18.5 6.35749 15.625 3.5 12 3.5C8.37502 3.5 5.5 6.35749 5.5 9.80488C5.5 12.159 6.51813 14.3107 7.88146 16.1287C9.24149 17.9424 10.8671 19.3181 11.8832 20.0846C11.9274 20.118 11.9675 20.1275 12 20.1275C12.0325 20.1275 12.0726 20.118 12.1168 20.0846C13.1329 19.3181 14.7585 17.9424 16.1185 16.1287ZM13.0201 21.2821C15.1763 19.6555 20 15.392 20 9.80488C20 5.49436 16.4183 2 12 2C7.58172 2 4 5.49436 4 9.80488C4 15.392 8.82374 19.6555 10.9799 21.2821C11.5904 21.7427 12.4096 21.7427 13.0201 21.2821Z" fill="#000B26" fill-opacity="0.72"/>
        </svg>
    </symbol>

    <symbol id="balance-logo">
        <svg width="24" height="24" viewBox="0 0 24 24" fill="none" xmlns="http://www.w3.org/2000/svg">
            <circle cx="12" cy="12" r="12" fill="url(#paint0_linear_2_2721)"/>
            <path d="M11 4H13V6H15.9522V7.82227H10.2149V11.0801H15.5403V12.9023H10.2149V16.1777H16V18H13V20H11V18H8V6H11V4Z" fill="white"/>
            <defs>
                <linearGradient id="paint0_linear_2_2721" x1="3.5" y1="4" x2="11.4725" y2="24.2081" gradientUnits="userSpaceOnUse">
                    <stop stop-color="#00D5C7"/>
                    <stop offset="1" stop-color="#FFEE57"/>
                </linearGradient>
            </defs>
        </svg>
    </symbol>

    <symbol>
        <svg width="24" height="24" viewBox="0 0 24 24" fill="none" xmlns="http://www.w3.org/2000/svg">
            <path fill-rule="evenodd" clip-rule="evenodd" d="M14.5303 18.5303C14.2374 18.8232 13.7626 18.8232 13.4697 18.5303L7.46967 12.5303C7.17678 12.2374 7.17678 11.7626 7.46967 11.4697L13.4697 5.46967C13.7626 5.17678 14.2374 5.17678 14.5303 5.46967C14.8232 5.76256 14.8232 6.23744 14.5303 6.53033L9.06066 12L14.5303 17.4697C14.8232 17.7626 14.8232 18.2374 14.5303 18.5303Z" fill="#000B26" fill-opacity="0.72"/>
        </svg>
    </symbol>

    <symbol id="btn-arrow">
        <svg width="24" height="24" viewBox="0 0 24 24" fill="none" xmlns="http://www.w3.org/2000/svg">
            <path fill-rule="evenodd" clip-rule="evenodd" d="M11.4697 5.46967C11.7626 5.17678 12.2374 5.17678 12.5303 5.46967L18.5303 11.4697C18.8232 11.7626 18.8232 12.2374 18.5303 12.5303L12.5303 18.5303C12.2374 18.8232 11.7626 18.8232 11.4697 18.5303C11.1768 18.2374 11.1768 17.7626 11.4697 17.4697L16.1893 12.75H6C5.58579 12.75 5.25 12.4142 5.25 12C5.25 11.5858 5.58579 11.25 6 11.25H16.1893L11.4697 6.53033C11.1768 6.23744 11.1768 5.76256 11.4697 5.46967Z" fill="#000B26" fill-opacity="0.72"/>
        </svg>
    </symbol>

    <symbol id="mail">
        <svg width="24" height="24" viewBox="0 0 24 24" fill="none" xmlns="http://www.w3.org/2000/svg">
            <path fill-rule="evenodd" clip-rule="evenodd" d="M5 5.5H19C19.6497 5.5 20.203 5.91311 20.4114 6.49099L13.2481 11.2666C12.4923 11.7704 11.5077 11.7704 10.7519 11.2666L3.58857 6.49099C3.79701 5.91311 4.35026 5.5 5 5.5ZM3.5 8.23472V17C3.5 17.8284 4.17157 18.5 5 18.5H19C19.8284 18.5 20.5 17.8284 20.5 17V8.23472L14.0801 12.5146C12.8205 13.3544 11.1795 13.3544 9.91987 12.5146L3.5 8.23472ZM2 7C2 5.34315 3.34315 4 5 4H19C20.6569 4 22 5.34315 22 7V17C22 18.6569 20.6569 20 19 20H5C3.34315 20 2 18.6569 2 17V7Z" fill="#000B26" fill-opacity="0.32"/>
        </svg>
    </symbol>

    <symbol id="call">
        <svg width="24" height="24" viewBox="0 0 24 24" fill="none" xmlns="http://www.w3.org/2000/svg">
            <path fill-rule="evenodd" clip-rule="evenodd" d="M6.5325 3.61307C6.21421 3.83674 5.73913 4.23444 5.16024 4.91438C4.48981 5.70184 4.08498 6.63876 4.10421 7.58059C4.14871 9.76028 5.15893 12.8115 8.17459 15.8272C11.2612 18.9138 14.3229 19.9083 16.4923 19.9154C17.3875 19.9183 18.2749 19.529 19.0295 18.8935C19.7348 18.2994 20.15 17.8033 20.3836 17.471C20.3777 17.4582 20.3641 17.4364 20.3347 17.4129L17.0179 14.7594C16.9184 14.6798 16.775 14.6878 16.685 14.7779L16.052 15.4108C15.1895 16.2733 13.803 16.5045 12.7311 15.7711C10.8957 14.5154 9.42306 13.0092 8.22991 11.2697C7.49172 10.1934 7.72445 8.79816 8.59617 7.93396L9.22085 7.31467C9.31161 7.2247 9.3199 7.08075 9.24006 6.98096L6.57993 3.6558C6.56428 3.63624 6.54884 3.6234 6.53671 3.61564C6.53523 3.6147 6.53383 3.61384 6.5325 3.61307ZM4.01811 3.94199C4.68646 3.15697 5.264 2.66771 5.6962 2.36754C6.43833 1.85211 7.30361 2.15923 7.75124 2.71876L10.4114 6.04391C10.9702 6.74248 10.9122 7.75008 10.2769 8.37992L9.65223 8.9992C9.23923 9.40864 9.18185 10.0056 9.4669 10.4212C10.5592 12.0137 11.9013 13.3859 13.5781 14.5331C13.9903 14.8151 14.5824 14.7591 14.9913 14.3501L15.6243 13.7172C16.2548 13.0867 17.2586 13.0311 17.9549 13.5881L21.2718 16.2416C21.8409 16.6969 22.1415 17.5735 21.622 18.3176C21.3114 18.7624 20.8047 19.3594 19.9958 20.0407C19.0433 20.8429 17.8239 21.4198 16.4874 21.4154C13.8678 21.4068 10.4399 20.2138 7.11393 16.8879C3.85533 13.6293 2.65777 10.2196 2.60452 7.61121C2.57603 6.21564 3.17298 4.93464 4.01811 3.94199Z" fill="#000B26" fill-opacity="0.32"/>
        </svg>
    </symbol>


</svg>