<svg width="16" height="16" viewBox="0 0 16 16" fill="none" xmlns="http://www.w3.org/2000/svg">
<path fill-rule="evenodd" clip-rule="evenodd" d="M11.625 7.125C11.625 9.61028 9.61028 11.625 7.125 11.625C4.63972 11.625 2.625 9.61028 2.625 7.125C2.625 4.63972 4.63972 2.625 7.125 2.625C9.61028 2.625 11.625 4.63972 11.625 7.125ZM10.8042 11.8649C9.78822 12.6547 8.51153 13.125 7.125 13.125C3.81129 13.125 1.125 10.4387 1.125 7.125C1.125 3.81129 3.81129 1.125 7.125 1.125C10.4387 1.125 13.125 3.81129 13.125 7.125C13.125 8.51153 12.6547 9.78822 11.8649 10.8042L14.6553 13.5947C14.9482 13.8876 14.9482 14.3624 14.6553 14.6553C14.3624 14.9482 13.8876 14.9482 13.5947 14.6553L10.8042 11.8649Z" fill="#000B26" fill-opacity="0.48"/>
</svg>
